<svg width="20" height="20" viewBox="0 0 20 20" fill="none" xmlns="http://www.w3.org/2000/svg">
<path fill-rule="evenodd" clip-rule="evenodd" d="M3 4.5605C3 4.25094 3.25444 4 3.5683 4L16.4317 4C16.7455 4 17 4.25094 17 4.5605C17 4.87005 16.7455 5.12099 16.4317 5.12099L3.5683 5.121C3.25444 5.121 3 4.87005 3 4.5605Z" fill="#505050"/>
<path fill-rule="evenodd" clip-rule="evenodd" d="M3 15.4395C3 15.1299 3.25444 14.879 3.5683 14.879L16.4317 14.879C16.7455 14.879 17 15.1299 17 15.4395C17 15.7491 16.7455 16 16.4317 16L3.5683 16C3.25444 16 3 15.7491 3 15.4395Z" fill="#505050"/>
<path fill-rule="evenodd" clip-rule="evenodd" d="M3.00004 9.95105C3.00004 9.6415 3.25447 9.39056 3.56834 9.39056L16.4317 9.39055C16.7456 9.39055 17 9.6415 17 9.95105C17 10.2606 16.7456 10.5115 16.4317 10.5115L3.56834 10.5116C3.25447 10.5116 3.00004 10.2606 3.00004 9.95105Z" fill="#505050"/>
</svg>
