<svg width="24" height="24" viewBox="0 0 24 24" fill="none" xmlns="http://www.w3.org/2000/svg">
<path d="M4.73251 16.0174C4.91251 16.0174 5.08251 15.9474 5.21251 15.8074C5.45251 15.5374 5.43251 15.1274 5.17251 14.8874L2.28136 12.1674H10.35C11.6479 12.1674 12.7 13.2195 12.7 14.5174V16.2971C12.7 16.656 12.991 16.9471 13.35 16.9471C13.709 16.9471 14 16.656 14 16.2971V14.5174C14 12.5015 12.3658 10.8674 10.35 10.8674H2.27185L2.27194 10.8519L5.13249 8.43738C5.40249 8.19738 5.41249 7.78738 5.17249 7.51738C4.93249 7.25738 4.52249 7.23738 4.25249 7.47738L0.232501 10.9819C-0.0775003 11.2619 -0.0775003 11.7419 0.232501 12.0219L4.29251 15.8474C4.42251 15.9674 4.57251 16.0174 4.73251 16.0174Z" fill="#505050"/>
</svg>
