<svg width="20" height="20" viewBox="0 0 20 20" fill="none" xmlns="http://www.w3.org/2000/svg">
<g clip-path="url(#clip0_6_338)">
<path d="M10 20C15.4839 20 20 15.4839 20 10C20 4.51613 15.4839 0 10 0C4.51613 0 0 4.51613 0 10C0 15.5914 4.51613 20 10 20Z" fill="#505050"/>
<path d="M11.6725 11.9706C11.8805 12.1884 12.1924 12.7329 12.1924 13.3863C12.1924 14.4754 12.1924 15.2377 12.1924 15.5644C12.1924 15.5644 12.1924 15.5644 12.1924 15.6733C11.5685 15.8911 10.9446 16 10.3207 16C9.69683 16 9.07293 15.8911 8.55301 15.6733C8.55301 15.6733 8.55301 15.6733 8.55301 15.5644C8.55301 15.3466 8.55301 14.8021 8.55301 14.1486C6.6813 14.4754 6.26537 13.713 6.0574 13.2774C5.95342 13.0596 5.64147 12.4062 5.32952 12.1884C5.12155 12.0795 4.70561 11.6439 5.32952 11.6439C5.84943 11.6439 6.26537 12.1884 6.47334 12.4062C7.09724 13.6041 8.13708 13.2774 8.55301 13.0596C8.65699 12.5151 8.76098 12.1884 9.07293 11.9706C7.40919 11.7528 5.74545 11.0993 5.74545 8.15895C5.74545 7.28772 6.0574 6.6343 6.47334 6.08979C6.36935 5.87198 6.16139 5.10966 6.47334 4.02062C6.47334 4.02062 7.09724 3.80281 8.44903 4.78294C9.07293 4.56514 9.59285 4.56514 10.3207 4.56514C10.9446 4.56514 11.5685 4.67404 12.1924 4.78294C13.5442 3.80281 14.1681 4.02062 14.1681 4.02062C14.5841 5.10966 14.2721 5.87198 14.2721 6.08979C14.792 6.6343 15 7.28772 15 8.15895C15 11.2082 13.2323 11.8617 11.6725 11.9706Z" fill="white"/>
</g>
<defs>
<clipPath id="clip0_6_338">
<rect width="20" height="20" fill="white"/>
</clipPath>
</defs>
</svg>
