<svg width="24" height="24" viewBox="0 0 24 24" fill="none" xmlns="http://www.w3.org/2000/svg">
<path d="M4.31606 10.2037L11.3161 3.64119C11.7007 3.28058 12.2993 3.28058 12.6839 3.6412L19.6839 10.2037C19.8856 10.3927 20 10.6568 20 10.9332V20C20 20.5523 19.5523 21 19 21H15.5C14.9477 21 14.5 20.5523 14.5 20V15.5C14.5 14.9477 14.0523 14.5 13.5 14.5H10.5C9.94772 14.5 9.5 14.9477 9.5 15.5V20C9.5 20.5523 9.05228 21 8.5 21H5C4.44772 21 4 20.5523 4 20V10.9332C4 10.6568 4.11441 10.3927 4.31606 10.2037Z" stroke="#505050" stroke-width="1.2" stroke-linecap="round"/>
</svg>
