<svg width="20" height="20" viewBox="0 0 20 20" fill="none" xmlns="http://www.w3.org/2000/svg">
<path fill-rule="evenodd" clip-rule="evenodd" d="M6.41707 8.24075C6.41707 6.19267 8.02099 4.53237 9.99953 4.53237C11.9781 4.53237 13.582 6.19267 13.582 8.24075C13.582 10.2888 11.9781 11.9491 9.99953 11.9491C8.02099 11.9491 6.41707 10.2888 6.41707 8.24075ZM9.99953 5.69403C8.64077 5.69403 7.53928 6.83423 7.53928 8.24075C7.53928 9.64726 8.64077 10.7875 9.99953 10.7875C11.3583 10.7875 12.4598 9.64726 12.4598 8.24075C12.4598 6.83423 11.3583 5.69403 9.99953 5.69403Z" fill="#505050"/>
<path fill-rule="evenodd" clip-rule="evenodd" d="M9.67458 2.01241C12.4996 1.83581 15.5003 3.54033 15.9461 7.31777C15.9775 7.58378 15.9965 7.83115 15.9995 8.05389C16.0158 9.25697 15.6463 10.4742 15.1179 11.5992C14.5876 12.7281 13.8808 13.7987 13.1822 14.7185C12.4824 15.6399 11.7822 16.4213 11.2575 16.9722C10.9699 17.2741 10.6785 17.5727 10.3721 17.8542C10.1597 18.049 9.83967 18.0484 9.62729 17.8537C9.62746 17.8538 9.66581 17.8096 9.62729 17.8537C9.32158 17.5718 9.02984 17.2739 8.74248 16.9722C8.21775 16.4213 7.51756 15.6399 6.81777 14.7185C6.1192 13.7987 5.41237 12.7281 4.88207 11.5992C4.35366 10.4742 3.98424 9.25697 4.00052 8.05389C4.05193 4.25308 6.8509 2.18893 9.67458 2.01241ZM9.99998 16.6253C9.8727 16.4987 9.71745 16.3412 9.54155 16.1566C9.03745 15.6274 8.36709 14.8789 7.69999 14.0005C7.03165 13.1205 6.37523 12.1214 5.8913 11.0912C5.40549 10.057 5.1097 9.0254 5.12262 8.07016C5.16413 5.00205 7.37654 3.31985 9.74222 3.17196C12.1066 3.02416 14.4732 4.4172 14.8322 7.45865C14.8603 7.69685 14.8751 7.9008 14.8774 8.07016C14.8903 9.0254 14.5945 10.0569 14.1087 11.0912C13.6248 12.1214 12.9683 13.1205 12.3 14.0005C11.6329 14.8789 10.9625 15.6274 10.4584 16.1566C10.2825 16.3412 10.1273 16.4987 9.99998 16.6253Z" fill="#505050"/>
</svg>
