<svg width="24" height="24" viewBox="0 0 24 24" fill="none" xmlns="http://www.w3.org/2000/svg">
<path fill-rule="evenodd" clip-rule="evenodd" d="M19.2567 19.6447V11.6106C19.2567 10.4878 18.3552 9.57763 17.2432 9.57763C16.1312 9.57763 15.2298 10.4878 15.2298 11.6106L15.2298 19.6447H14.0134V16.3672C14.0134 15.2444 13.112 14.3342 12 14.3342C10.888 14.3342 9.98655 15.2444 9.98655 16.3672V19.6447H8.7701L8.7701 13.6957C8.7701 12.5729 7.86865 11.6627 6.75665 11.6627C5.64466 11.6627 4.74321 12.5729 4.74321 13.6957L4.74321 19.6447H3.67115C3.30048 19.6447 3 19.9481 3 20.3223C3 20.6966 3.30048 21 3.67115 21H5.72362C5.72346 21 5.72379 21 5.72362 21H7.78919C7.78896 21 7.78942 21 7.78919 21H10.9665C10.9662 21 10.9668 21 10.9665 21H13.0325C13.0329 21 13.0332 21 13.0336 21H16.2095C16.2099 21 16.2103 21 16.2107 21H18.2758C18.2762 21 18.2766 21 18.2771 21H20.3289C20.6995 21 21 20.6966 21 20.3223C21 19.9481 20.6995 19.6447 20.3289 19.6447H19.2567ZM17.9144 19.6447V11.6106C17.9144 11.2363 17.6139 10.9329 17.2432 10.9329C16.8726 10.9329 16.5721 11.2363 16.5721 11.6106V19.6447H17.9144ZM6.0855 19.6447L6.0855 13.6957C6.0855 13.3214 6.38599 13.018 6.75665 13.018C7.12732 13.018 7.4278 13.3214 7.4278 13.6957V19.6447H6.0855ZM11.3288 19.6447H12.6711V16.3672C12.6711 15.9929 12.3707 15.6895 12 15.6895C11.6293 15.6895 11.3288 15.9929 11.3288 16.3672V19.6447Z" fill="#5095EC"/>
<path fill-rule="evenodd" clip-rule="evenodd" d="M19.3083 6.08509C19.3083 7.23665 18.3837 8.17017 17.2432 8.17017C16.8961 8.17017 16.569 8.08371 16.2819 7.93095L13.921 10.1403C13.9151 10.1252 13.909 10.1102 13.9028 10.0952C14.0073 10.3447 14.0651 10.619 14.0651 10.9069C14.0651 12.0584 13.1405 12.9919 12 12.9919C10.8595 12.9919 9.93492 12.0584 9.93492 10.9069C9.93492 10.8391 9.93813 10.772 9.94439 10.7059L8.1331 9.72457C7.76778 10.0546 7.28542 10.2553 6.75665 10.2553C5.61614 10.2553 4.69157 9.32174 4.69157 8.17017C4.69157 7.01861 5.61614 6.08509 6.75665 6.08509C7.89715 6.08509 8.82172 7.01861 8.82172 8.17017C8.82172 8.29703 8.8105 8.42123 8.78901 8.54184L10.5031 9.47049C10.4696 9.506 10.4374 9.54271 10.4065 9.58054C10.7852 9.11714 11.3585 8.82176 12 8.82176C12.3824 8.82176 12.7405 8.92672 13.0477 9.10966C13.0477 9.10966 13.0477 9.10966 13.0477 9.10966L15.3612 6.94463C15.2436 6.68254 15.1781 6.39154 15.1781 6.08509C15.1781 4.93353 16.1027 4 17.2432 4C18.3837 4 19.3083 4.93353 19.3083 6.08509ZM17.966 6.08509C17.966 6.48813 17.6424 6.81487 17.2432 6.81487C16.844 6.81487 16.5204 6.48813 16.5204 6.08509C16.5204 5.68204 16.844 5.35531 17.2432 5.35531C17.6424 5.35531 17.966 5.68204 17.966 6.08509ZM7.47942 8.17017C7.47942 8.57322 7.15582 8.89995 6.75665 8.89995C6.35747 8.89995 6.03387 8.57322 6.03387 8.17017C6.03387 7.76713 6.35747 7.44039 6.75665 7.44039C7.15582 7.44039 7.47942 7.76713 7.47942 8.17017ZM12 11.6366C12.3992 11.6366 12.7228 11.3099 12.7228 10.9069C12.7228 10.5038 12.3992 10.1771 12 10.1771C11.6008 10.1771 11.2772 10.5038 11.2772 10.9069C11.2772 11.3099 11.6008 11.6366 12 11.6366Z" fill="#5095EC"/>
</svg>
